<?xml version="1.0" standalone="no"?>
<!DOCTYPE svg PUBLIC "-//W3C//DTD SVG 1.1//EN" "http://www.w3.org/Graphics/SVG/1.1/DTD/svg11.dtd" >
<svg xmlns="http://www.w3.org/2000/svg" xmlns:xlink="http://www.w3.org/1999/xlink" version="1.1" viewBox="-10 0 1010 1000">
   <path fill="currentColor"
d="M940 384v-1q-1 1 -19 1q-38 -10 -76 -39q-3 26 -14 75q-6 34 -16 50q0 15 -8 36q-12 28 -14 33q-11 23 -41 60q0 1 -11 9q-19 27 -43 26q-27 -1 -45 -30q-7 -11 -23 -51q-7 -11 -16 -23.5t-21 -13.5q-15 -9 -43 6q-23 22 -40 84q-5 12 -10 39t-11 39q-1 6 -6 17
q-13 36 -42 64q-5 4 -16 11q-32 17 -57 11q-2 2 -5 2t-9 -4t-11 -4q-52 -33 -72 -105q-13 -43 -18 -134q-25 -8 -52 -17.5t-45 -25.5q-72 -49 -65 -159q3 -6 3 -13q0 -9 -12.5 -28t-12.5 -32q-9 -31 -9 -66q0 -84 47 -161q21 -25 36 -29l5 6q1 5 -4.5 9.5t-6.5 7.5
q-7 23 -7 50q0 44 17 83q3 6 17 25q43 -32 123 -43q89 0 140 58q19 -22 24 -30q12 -19 12 -37q15 -28 2 -65q-6 -16 -24 -42l6 -9l2 2h2q84 60 84 176q0 92 -52 145q0 80 -67 151l-1 -2q-39 34 -110 52q-3 74 15 131q6 32 24 50h1q29 20 39 18q50 -29 64 -103q4 -12 11 -34
t10 -34t26 -59q7 -13 24 -26q25 -18 28 -22q24 -16 54 -8q46 5 66 71q7 14 14 29t21 15q22 -14 39 -48q26 -54 27 -56q11 -31 30 -94q6 -19 4 -41q-18 14 -52 35t-37 20q-2 -1 52.5 -122t55.5 -120q44 94 116 231z" />
</svg>
