<?xml version="1.0" standalone="no"?>
<!DOCTYPE svg PUBLIC "-//W3C//DTD SVG 1.1//EN" "http://www.w3.org/Graphics/SVG/1.1/DTD/svg11.dtd" >
<svg xmlns="http://www.w3.org/2000/svg" xmlns:xlink="http://www.w3.org/1999/xlink" version="1.1" viewBox="-10 0 883 1000">
   <path fill="currentColor"
d="M806 386q7 35 7 68q0 84 -52 181q-55 103 -126 152q-77 55 -190 57q-72 1 -120 -9q-58 -13 -114 -50q-52 -35 -74 -58q-31 -32 -51 -83q-27 -69 -27 -114q0 -50 42 -109q19 -21 39 -44t20 -45q0 -8 -3 -17q-2 -20 -24.5 -55.5t-23.5 -36.5q26 8 77 37q41 33 50 44
q19 26 17 67q-1 26 -19 60q-15 30 -12 51q7 27 25 38q13 8 27 8q21 0 44 -18q16 -12 27 -59q5 -20 5 -38q0 -47 -46 -119q-54 -86 -67 -132q-3 -12 -3 -23q0 -28 26 -70q74 -117 208 -170l12 2q2 1 -33 28q-41 30 -53 43q-33 45 -33 97t35 91q18 26 106 87q79 54 104 113
q11 23 21 46q4 13 5 54q53 -83 53 -116q0 -31 -53 -129q-12 -17 -20 -33q-21 -39 -22 -71q0 -22 31 -56q28 -31 36 -30q2 0 2 2l-13 30t-14 53q0 30 26 52.5t52 44.5q88 96 95 179h1z" />
</svg>
