<?xml version="1.0" standalone="no"?>
<!DOCTYPE svg PUBLIC "-//W3C//DTD SVG 1.1//EN" "http://www.w3.org/Graphics/SVG/1.1/DTD/svg11.dtd" >
<svg xmlns="http://www.w3.org/2000/svg" xmlns:xlink="http://www.w3.org/1999/xlink" version="1.1" viewBox="-10 0 1049 1000">
   <path fill="currentColor"
d="M950 372q-10 17 -99 95q-80 69 -111 92q-64 46 -69 51q-31 27 -89 83q-17 17 -64 70q-23 -26 -62 -71q-9 -9 -89 -84l-68 -49q-33 -23 -113 -93q-89 -78 -98 -97q-24 -49 -24 -109q0 -89 50 -149q61 -74 170 -74q28 0 56 6q62 13 113 68q46 51 65 116q18 -65 65 -116
q51 -54 113 -67q28 -6 57 -6q108 0 171 74q51 61 51 151q0 60 -25 108v1z" />
</svg>
