<?xml version="1.0" standalone="no"?>
<!DOCTYPE svg PUBLIC "-//W3C//DTD SVG 1.1//EN" "http://www.w3.org/Graphics/SVG/1.1/DTD/svg11.dtd" >
<svg xmlns="http://www.w3.org/2000/svg" xmlns:xlink="http://www.w3.org/1999/xlink" version="1.1" viewBox="-10 0 1011 1000">
   <path fill="currentColor"
d="M918 584l-1 1q-42 62 -106.5 95t-140.5 28l-49 -9l-275 -76q-16 -5 -33 -5q-44 0 -89.5 29t-71.5 68l-67 -41q89 -127 231 -127q34 0 67 9l278 74q121 11 197 -85q21 13 60 39zM917 355l-1 1q-42 62 -107 95t-140 27l-49 -9l-275 -76q-16 -5 -33 -5q-44 0 -91 31
q-44 27 -70 67l-67 -41q41 -59 102 -93.5t130 -34.5q33 0 66 9l278 75q121 11 197 -85q21 13 60 39zM916 126h-1q-42 62 -106.5 95t-140.5 28l-49 -9l-275 -76q-16 -5 -33 -5q-44 0 -91 31q-44 27 -70 67l-67 -41q41 -59 102 -93.5t130 -34.5q33 0 66 9l278 75
q121 11 197 -85q21 13 60 39z" />
</svg>
