<?xml version="1.0" encoding="UTF-8" standalone="no"?>
<svg id="Capa_1" enable-background="new 0 0 512 512" viewBox="0 0 512 512" version="1.1">
  <g transform="rotate(180,256,256)">
    <path d="m 376.007,90 c -5.261,0 -10.31,0.916 -15.007,2.581 V 74.994 C 361,50.184 340.811,30 315.994,30 310.14,30 304.549,31.136 299.414,33.179 294.21,14.084 276.721,0 255.994,0 235.272,0 217.787,14.085 212.584,33.182 207.447,31.137 201.852,30 195.994,30 171.185,30 151,50.184 151,74.994 V 195.041 C 138.457,185.603 122.872,180 106.001,180 c -8.284,0 -15,6.716 -15,15 L 91,307.918 c 0,43.443 22.821,83.658 60,105.949 V 497 c 0,8.284 6.716,15 15,15 h 210 c 8.284,0 15,-6.716 15,-15 v -86.026 c 19.394,-21.572 30,-49.17 30,-78.4 V 134.994 C 421,110.184 400.816,90 376.007,90 Z M 391,332.574 c 0,23.353 -9.094,45.307 -25.606,61.82 C 362.58,397.206 361,401.022 361,405 v 77 H 181 c 0,0 0,-77.066 0,-77.068 -0.026,-5.861 -3.435,-11.043 -8.562,-13.484 C 140.701,375.455 121,343.477 121,307.918 l 0.001,-95.348 C 138.462,218.761 151,235.444 151,255 v 30 c 0,8.284 6.716,15 15,15 8.284,0 15,-6.716 15,-15 0,-10.51 0,-198.98 0,-210.006 C 181,66.726 187.727,60 195.994,60 204.269,60 211,66.726 211,74.994 V 225 c 0,8.284 6.716,15 15,15 8.284,0 15,-6.716 15,-15 V 44.994 C 241,36.726 247.727,30 255.994,30 264.269,30 271,36.726 271,44.994 V 225 c 0,8.284 6.716,15 15,15 8.284,0 15,-6.716 15,-15 V 74.994 C 301,66.726 307.727,60 315.994,60 324.269,60 331,66.726 331,74.994 V 225 c 0,8.284 6.716,15 15,15 8.284,0 15,-6.716 15,-15 V 134.994 C 361,126.726 367.732,120 376.007,120 384.275,120 391,126.726 391,134.994 Z" />
  </g>
</svg>
