<svg id="Capa_1" enable-background="new 0 0 512.002 512.002" height="512" viewBox="0 0 512.002 512.002" width="512" xmlns="http://www.w3.org/2000/svg"><g><g><path d="m118.999 512.002c-59.364.003-107.482-56.967-80.497-139.911 15.268-46.93 22.69-88.833 22.69-128.104 0-72.724-29.999-88.597-30-167.599v-61.388c0-8.284 6.715-15 15-15h210c8.814 0 15.731 7.573 14.939 16.349l-26.292 291.216c-1.69 18.591 8.001 35.989 24.689 44.333l140.205 70.102h26.459c24.813 0 45 20.187 45 45s-20.187 45-45 45h-164.464c-12.81 0-25.608-3.083-37.013-8.915-23.88-12.211-52.458-12.342-76.446-.35-12.102 6.049-25.649 9.254-39.178 9.267-.03 0-.063 0-.092 0zm-57.807-482.002v46.387c.001 72.777 30 88.517 30 167.599 0 42.472-7.903 87.411-24.162 137.385-20.394 62.688 12.372 100.621 52.031 100.63 8.907-.009 17.826-2.118 25.793-6.101 32.486-16.24 71.184-16.062 103.52.474 7.196 3.68 15.271 5.625 23.354 5.625h164.464c8.271 0 15-6.729 15-15s-6.729-15-15-15h-30c-2.329 0-4.625-.542-6.708-1.583l-143.372-71.686c-27.813-13.906-43.966-42.903-41.151-73.872l24.816-274.858z"/></g><g><path d="m136.192 392c-8.284 0-15-6.716-15-15 0-24.813 20.187-45 45-45 8.284 0 15 6.716 15 15s-6.716 15-15 15c-8.271 0-15 6.729-15 15 0 8.284-6.716 15-15 15z"/></g></g></svg>