<?xml version="1.0" encoding="UTF-8" standalone="no"?>
<svg
   xmlns="http://www.w3.org/2000/svg"
   viewBox="0 0 512 512">
  <path
     fill="#000000"
     d="m 258.02561,22.780813 c -16.412,11.587 -26.631,28.374 -36.65,39.778 8.137,22.599 16.325,42.335997 35.187,56.350997 16.456,-14.057 21.495,-34.862997 27.54,-54.925997 -6.256,-13.603 -14.977,-30.262 -26.077,-41.203 z m -94.23,23.323 c -33.77,113.895997 30.23,225.895997 12.43,335.785997 24.853,-23.71 52.384,-45.75 81.848,-53.067 2.978,1.06 6.18,2.3 8.724,3.46 21.665,-87.86 40.77,-191.667 47.006,-274.592997 -3.538,1.274 -7.076,3.12 -10.62,5.424 -10.39,28.262 -22.228,55.279997 -38.391,71.284997 l -14.61,167.787 -19.933,8.438 16.55,-177.107 c -24.04,-19.37 -37.343,-45.833997 -45.964,-74.734997 -12.093,-5.45 -25.495,-9.93 -37.041,-12.68 z m 93.226,301.725997 c -27.52,7.846 -58.843,32.065 -78.594,60.766 l -1.33,29.082 33.467,12.074 3.947,-26.867 c 22.716,-21.982 51.8,-35.71 75.524,-40.389 -5.099,-16.311 -19.704,-28.994 -33.014,-34.666 z m 38.316,51.873 c -30.189,5.154 -49.151,16.373 -63.854,31.508 l -4.275,29.084 c 40.791,22.55 76.484,35.131 129.043,25.838 4.266,-14.55 1.655,-31.907 -8.657,-47.158 z"/>
</svg>
