<?xml version="1.0" standalone="no"?>
<!DOCTYPE svg PUBLIC "-//W3C//DTD SVG 1.1//EN" "http://www.w3.org/Graphics/SVG/1.1/DTD/svg11.dtd" >
<svg xmlns="http://www.w3.org/2000/svg" xmlns:xlink="http://www.w3.org/1999/xlink" version="1.1" viewBox="-10 0 800 1000">
   <path fill="currentColor"
d="M749 188l-120 161l-90 -68q-123 148 -185 232q-96 131 -157 250q-8 17 -34 34t-46 17q-17 0 -33 -12l-19 -14q-25 -19 -25 -47q0 -15 8 -32q10 -30 22 -44q182 -192 367 -461l-194 -148l39 -53q14 -18 41 -6l48 24q28 13 53 13q40 0 84 -29l51 39q13 -6 24 -6q16 0 35 13
l19 12q28 22 28 41q0 8 -4 18zM692 196l-188 -141q-40 22 -76 22q-26 0 -50 -12t-47 -24q-14 -7 -22 -5l-10 14l321 241zM482 286q0 -29 -29 -29t-29 29t29 29t29 -29z" />
</svg>
