<?xml version="1.0" standalone="no"?>
<!DOCTYPE svg PUBLIC "-//W3C//DTD SVG 1.1//EN" "http://www.w3.org/Graphics/SVG/1.1/DTD/svg11.dtd" >
<svg xmlns="http://www.w3.org/2000/svg" xmlns:xlink="http://www.w3.org/1999/xlink" version="1.1" viewBox="-10 0 936 1000">
   <path fill="currentColor"
d="M737 119l-171 170l-17 -17l171 -170zM889 389l-285 21v-69l285 21v27zM497 235h-69l21 -319h28zM532 376q0 29 -20.5 49t-49.5 20t-49 -20.5t-20 -49.5t20.5 -49t49.5 -20q28 0 48.5 20.5t20.5 49.5zM376 272l-17 17l-171 -170l17 -17zM735 634l-17 17l-170 -171l17 -17z
M322 410l-285 -21v-27l285 -21v69zM497 517l-20 319h-28l-21 -319h69zM376 479l-171 171l-17 -17l171 -171z" />
</svg>
