<?xml version="1.0" standalone="no"?>
<!DOCTYPE svg PUBLIC "-//W3C//DTD SVG 1.1//EN" "http://www.w3.org/Graphics/SVG/1.1/DTD/svg11.dtd" >
<svg xmlns="http://www.w3.org/2000/svg" xmlns:xlink="http://www.w3.org/1999/xlink" version="1.1" viewBox="-10 0 996 1000">
   <path fill="currentColor"
d="M855 772l-1 1q-106 -92 -251 -165q-102 -52 -273 -115q-69 -26 -242 -72q53 -15 128 -47q62 -28 125 -55q257 -105 497 -291v70l-34 27q94 106 94 268q0 111 -46 205q-11 24 -39 71q14 10 42 34v69zM846 264q0 -23 -8 -38t-19 -15t-18.5 16t-7.5 38t7.5 38t18.5 16
t18.5 -16t7.5 -38zM794 656v-1q-28 -28 -57 -90q-40 -86 -40 -184q0 -153 94 -247q-190 130 -462 229q-53 18 -146 51q391 101 608 242h3z" />
</svg>
