<?xml version="1.0" standalone="no"?>
<!DOCTYPE svg PUBLIC "-//W3C//DTD SVG 1.1//EN" "http://www.w3.org/Graphics/SVG/1.1/DTD/svg11.dtd" >
<svg xmlns="http://www.w3.org/2000/svg" xmlns:xlink="http://www.w3.org/1999/xlink" version="1.1" viewBox="-10 0 911 1000">
   <path fill="currentColor"
d="M701 126q-33 -37 -45 -49q-29 -27 -55 -35q3 -23 44 -23q32 0 45 11.5t14 43.5v41zM542 286q-1 7 -11 16t-26 9q-11 0 -33 -5q-7 -23 -20 -121q-13 -94 -13 -116q0 -48 26 -61q60 -5 49 -5q28 0 38 16v9q-11 -2 -19 -2q-34 0 -56.5 22.5t-21.5 59.5q2 44 76 108l21 18z
M602 566q-61 33 -96 31q-58 -3 -77 -30q-7 -9 -11 -22q-7 -18 -7 -61q0 -60 45 -109.5t104 -49.5q12 -7 24 -65q3 -13 7 -25q-8 -7 -29 -27q-25 -24 -51 -48q-29 -29 -29 -60t25 -43q8 -4 32 -4q27 0 75 30q35 21 70 68q69 92 69 175q0 12 -1 25q-12 142 -150 215zM433 360
q-18 13 -35 13q-14 0 -25 -7.5t-12 -13.5q0 -157 -57 -238q7 -35 65 -52h22q14 0 17 8q19 67 34 250q2 17 -9 40zM320 384q-29 3 -54 -42q-11 -24 -28.5 -59.5t-37.5 -42.5q-9 -3 -31 -10q60 -94 115 -91q49 75 49 239q-6 6 -13 6zM289 636q-73 0 -111 -108
q-29 -80 -29 -177q0 -42 9 -96q43 12 61 54q45 107 92 104h11q23 -3 36 -22q19 19 44 17q-12 27 -16 54q-5 36 -5 52q0 41 25 70q20 25 45 34q-76 18 -162 18zM542 776q-67 50 -169 48q-33 -1 -75 -17l-70 -28q0 -76 -7 -134q8 7 12 8q35 13 84 13q106 0 248 -51
q-14 34 -20 89q-6 49 -3 72z" />
</svg>
