<?xml version="1.0" standalone="no"?>
<!DOCTYPE svg PUBLIC "-//W3C//DTD SVG 1.1//EN" "http://www.w3.org/Graphics/SVG/1.1/DTD/svg11.dtd" >
<svg xmlns="http://www.w3.org/2000/svg" xmlns:xlink="http://www.w3.org/1999/xlink" version="1.1" viewBox="-10 0 945 1000">
   <path fill="currentColor"
d="M815 438q-7 131 -100 224.5t-224 100.5v88h-36v-88q-132 -7 -225 -100.5t-99 -224.5h-79v-36h79q7 -131 100 -223.5t224 -98.5v-71h36v71q130 6 223 98.5t100 223.5h70v36h-69zM491 116v159q50 5 87 40.5t44 86.5h156q-7 -116 -89.5 -198t-197.5 -88zM491 311v91h95
q-7 -36 -33 -61t-62 -30zM491 438v95q37 -5 63.5 -31.5t31.5 -63.5h-95zM455 312q-34 7 -58.5 31.5t-30.5 58.5h89v-90zM455 116q-116 6 -198.5 88t-89.5 198h163q6 -49 41 -84t84 -42v-160zM622 438q-5 52 -42 89t-89 42v158q116 -7 198.5 -90t88.5 -199h-156zM455 438h-90
q5 35 30 61t60 33v-94zM455 568q-50 -7 -85.5 -43.5t-40.5 -86.5h-162q6 116 88.5 199t199.5 90v-159z" />
</svg>
