<?xml version="1.0" standalone="no"?>
<!DOCTYPE svg PUBLIC "-//W3C//DTD SVG 1.1//EN" "http://www.w3.org/Graphics/SVG/1.1/DTD/svg11.dtd" >
<svg xmlns="http://www.w3.org/2000/svg" xmlns:xlink="http://www.w3.org/1999/xlink" version="1.1" viewBox="-10 0 922 1000">
   <path fill="currentColor"
d="M831 157q25 38 25 87q0 59 -34 112q-20 58 -57 71q-25 9 -59 9q-14 0 -42.5 -2t-43.5 -2q-3 10 -16 29.5t-16 31.5q-6 4 -5 12q2 7 3 14q19 61 51 187q13 29 18 79q5 5 7 24q-7 14 -34 7q-44 -6 -132 -16q-167 -15 -272 -14q-5 -3 -5 -7q0 -3 3.5 -9t3.5 -8
q11 -24 39 -70q2 -14 32 -61q6 -10 14 -33q16 -28 51 -84q-14 -52 -29 -76q-9 4 -30 11q-12 4 -26 4q-20 0 -48 -11l-46 -18q-66 -24 -79 -31q-42 -25 -44 -69q-4 -15 -4 -33q0 -10 4 -45q2 -28 0 -46q23 -40 106 -70q11 -1 44 -8q27 -5 45 -5q11 0 22 1.5t30 6.5
q8 -12 14 -52q6 -34 25 -48q34 -36 107 -41q84 -6 170 86q6 15 8 54q10 0 30 -6t31 -6q5 0 10 1q48 0 71 5q39 10 57 39h1zM614 383h-5q-6 -2 -11 -2q-18 0 -30 24q-19 38 -21 40q-16 20 -41 12q-16 -7 -17.5 -25.5t-1.5 -35.5q-45 0 -49 -1q-49 -24 -106 -35q23 47 43 80
q0 2 11 26q21 35 21 46q-39 80 -126 236h25q58 4 114 5q119 1 185 10q1 -27 -7 -62q-8 -30 -16 -59q-14 -61 -33 -116q-2 -6 -2 -11q0 -7 6 -19.5t7 -17.5q19 -38 47 -78q3 -6 7 -17z" />
</svg>
