<?xml version="1.0" standalone="no"?>
<!DOCTYPE svg PUBLIC "-//W3C//DTD SVG 1.1//EN" "http://www.w3.org/Graphics/SVG/1.1/DTD/svg11.dtd" >
<svg xmlns="http://www.w3.org/2000/svg" xmlns:xlink="http://www.w3.org/1999/xlink" version="1.1" viewBox="-10 0 902 1000">
   <path fill="currentColor"
d="M803 608q-34 104 -128 159q-85 50 -197 50q-89 0 -170 -33q-113 -45 -178 -151q-62 -100 -62 -223q0 -105 48 -198q57 -105 156 -163q92 -52 204 -52q146 0 278 91l-45 66q-112 -77 -233 -77q-90 0 -164 42q-79 45 -124 131q-40 74 -40 160q0 99 51 180q51 85 140 120
q75 31 145 31q116 0 191 -80q69 -73 69 -173q0 -65 -32 -119q-37 -57 -104 -89q-63 -30 -127 -30q-117 0 -156 87q-16 34 -16 74q0 66 38 117q38 53 92 57q77 5 118 -31q35 -30 35 -77q0 -36 -20 -59t-54 -23q-25 0 -42.5 8.5t-17.5 19.5q0 9 11 19q46 47 73 88l-67 44
l-21 -33q-3 -4 -45 -46q-30 -30 -30 -65q0 -10 2 -20q8 -45 47 -72q37 -24 85 -24q64 0 108 40q50 45 50 123q0 18 -2 35q-12 82 -89 124q-65 34 -147 29q-91 -7 -150 -87q-53 -73 -53 -168q0 -58 22 -106q62 -135 227 -135q131 0 232 86q113 94 113 235q0 58 -21 118z" />
</svg>
